<?xml version="1.0" encoding="UTF-8"?>
<svg width="79" height="123" version="1.1" viewBox="0 0 79 123" xmlns="http://www.w3.org/2000/svg" xmlns:xlink="http://www.w3.org/1999/xlink">
 <defs>
  <path id="e" d="m78.25 117.25c0 2.762-2.238 5-5 5h-67.5c-2.761 0-5-2.238-5-5v-111.5c0-2.762 2.239-5 5-5h67.5c2.762 0 5 2.238 5 5z" fill="#fff" stroke="#000" stroke-width="1.5"/>
  <path id="d" d="m2.159-0.864s2.375-1.9 2.375-4.534c0-1.542-1.369-4.102-4.534-4.102s-4.534 2.561-4.534 4.102c0 2.634 2.375 4.534 2.375 4.534-2.638-2.055-7.341-0.652-7.341 3.455 0 2.056 1.68 4.318 4.318 4.318 3.165 0 4.534-3.455 4.534-3.455s0.402 3.938-1.943 6.046h5.182c-2.345-2.107-1.943-6.046-1.943-6.046s1.369 3.455 4.534 3.455c2.639 0 4.318-2.263 4.318-4.318 0-4.107-4.703-5.51-7.341-3.455z"/>
  <path id="i" d="m1.137-0.455s1.25-1 1.25-2.386c0-0.812-0.722-2.159-2.387-2.159s-2.386 1.348-2.386 2.159c0 1.386 1.25 2.386 1.25 2.386-1.389-1.081-3.864-0.343-3.864 1.818 0 1.082 0.884 2.273 2.273 2.273 1.666 0 2.386-1.818 2.386-1.818s0.211 2.072-1.023 3.182h2.727c-1.234-1.109-1.022-3.182-1.022-3.182s0.721 1.818 2.387 1.818c1.389 0 2.272-1.191 2.272-2.273 0-2.161-2.476-2.899-3.863-1.818z"/>
  <g id="q" fill="none">
   <path d="m327.25 5.25h-7v5.25l0.7 0.25s0.47-1.5 2.8-1.5 3.27 2.25 3.27 4.5-1.4 4-3.5 4-3.03-1.5-3.27-2.25"/>
  </g>
  <g id="ad" fill="none">
   <path d="m383.75 117.75h7v-5.25l-0.7-0.25s-0.47 1.5-2.8 1.5-3.27-2.25-3.27-4.5 1.4-4 3.5-4 3.03 1.5 3.27 2.25"/>
  </g>
 </defs>
 <use transform="translate(-316)" x="316" xlink:href="#e"/>
 <use transform="translate(-316)" x="1" y="-0.5" stroke="#000000" xlink:href="#q"/>
 <use transform="translate(-316)" x="-1" y="0.5" stroke="#000000" xlink:href="#ad"/>
 <use transform="translate(8.5,24.5)" xlink:href="#i"/>
 <use transform="rotate(180,35.25,49.25)" xlink:href="#i"/>
 <use transform="translate(23.5,21.5)" xlink:href="#d"/>
 <use transform="rotate(180,11.75,50.75)" xlink:href="#d"/>
 <use transform="translate(39.5,61.5)" xlink:href="#d"/>
 <use transform="translate(55.5,21.5)" xlink:href="#d"/>
 <use transform="rotate(180,27.75,50.75)" xlink:href="#d"/>
</svg>
