<?xml version="1.0" encoding="UTF-8"?>
<svg width="79" height="123" version="1.1" viewBox="0 0 79 123" xmlns="http://www.w3.org/2000/svg" xmlns:xlink="http://www.w3.org/1999/xlink">
 <defs>
  <path id="e" d="m78.25 117.25c0 2.762-2.238 5-5 5h-67.5c-2.761 0-5-2.238-5-5v-111.5c0-2.762 2.239-5 5-5h67.5c2.762 0 5 2.238 5 5z" fill="#fff" stroke="#000" stroke-width="1.5"/>
  <path id="c" d="m3.529-5.011c-2.117-2.864-3.529-5.489-3.529-5.489s-1.412 2.625-3.529 5.489-4.471 5.011-4.471 5.011 2.353 2.147 4.471 5.012 3.529 5.488 3.529 5.488 1.412-2.625 3.529-5.488 4.471-5.012 4.471-5.012-2.353-2.148-4.471-5.011z" fill="#df0000"/>
  <path id="h" d="m1.985-2.625c-1.191-1.5-1.985-2.875-1.985-2.875s-0.794 1.375-1.985 2.875-2.515 2.625-2.515 2.625 1.324 1.125 2.515 2.625 1.985 2.875 1.985 2.875 0.794-1.375 1.985-2.875 2.515-2.625 2.515-2.625-1.323-1.125-2.515-2.625z" fill="#df0000"/>
  <g id="p" fill="none">
   <path d="m405.75 14a3.25 3.25 0 1 0-6.5 0 3.25 3.25 0 1 0 6.5 0"/>
   <path d="m399.25 14v-5.5s-0.25-3.25 3.23-3.25c1.08 0 2.8 0.5 3.02 2.25"/>
  </g>
  <g id="ac" fill="none">
   <path d="m469.75 109v5.5s0.25 3.25-3.23 3.25c-1.08 0-2.8-0.5-3.02-2.25"/>
   <path d="m469.75 109a3.25 3.25 0 1 0-6.5 0 3.25 3.25 0 1 0 6.5 0"/>
  </g>
 </defs>
 <use transform="translate(-395,-123)" x="395" y="123" xlink:href="#e"/>
 <use transform="translate(-395,-123)" x="1" y="122.5" stroke="#df0000" xlink:href="#p"/>
 <use transform="translate(-395,-123)" x="-1" y="123.5" stroke="#df0000" xlink:href="#ac"/>
 <use transform="translate(8.5,24.5)" xlink:href="#h"/>
 <use transform="translate(70.5,98.5)" xlink:href="#h"/>
 <use transform="translate(23.5,21.5)" xlink:href="#c"/>
 <use transform="translate(23.5,61.5)" xlink:href="#c"/>
 <use transform="translate(23.5,101.5)" xlink:href="#c"/>
 <use transform="translate(55.5,21.5)" xlink:href="#c"/>
 <use transform="translate(55.5,61.5)" xlink:href="#c"/>
 <use transform="translate(55.5,101.5)" xlink:href="#c"/>
</svg>
